<mxfile host="Electron" modified="2023-11-23T08:16:19.869Z" agent="Mozilla/5.0 (Windows NT 10.0; Win64; x64) AppleWebKit/537.36 (KHTML, like Gecko) draw.io/22.1.2 Chrome/114.0.5735.289 Electron/25.9.4 Safari/537.36" etag="ScoLqdwKFlXCqRgOE6su" version="22.1.2" type="device">
  <diagram name="Страница — 1" id="jWigPYOgys1MerMBkS01">
    <mxGraphModel dx="1884" dy="1276" grid="1" gridSize="10" guides="1" tooltips="1" connect="1" arrows="1" fold="1" page="1" pageScale="1" pageWidth="1169" pageHeight="827" math="0" shadow="0">
      <root>
        <mxCell id="0" />
        <mxCell id="1" parent="0" />
        <mxCell id="JXqbrIZ9gM3I_YPn6SAN-18" style="edgeStyle=orthogonalEdgeStyle;rounded=0;orthogonalLoop=1;jettySize=auto;html=1;" edge="1" parent="1" source="JXqbrIZ9gM3I_YPn6SAN-1">
          <mxGeometry relative="1" as="geometry">
            <mxPoint x="800" y="320" as="targetPoint" />
          </mxGeometry>
        </mxCell>
        <mxCell id="JXqbrIZ9gM3I_YPn6SAN-19" value="Клиент записан&lt;br&gt;&amp;nbsp;на тренировку" style="edgeLabel;html=1;align=center;verticalAlign=middle;resizable=0;points=[];" vertex="1" connectable="0" parent="JXqbrIZ9gM3I_YPn6SAN-18">
          <mxGeometry x="0.0441" y="1" relative="1" as="geometry">
            <mxPoint x="-2" y="-19" as="offset" />
          </mxGeometry>
        </mxCell>
        <mxCell id="JXqbrIZ9gM3I_YPn6SAN-1" value="&lt;span style=&quot;font-size: 16px;&quot;&gt;&lt;b&gt;Запись на тренировку&lt;/b&gt;&lt;/span&gt;" style="rounded=0;whiteSpace=wrap;html=1;" vertex="1" parent="1">
          <mxGeometry x="400" y="240" width="280" height="160" as="geometry" />
        </mxCell>
        <mxCell id="JXqbrIZ9gM3I_YPn6SAN-2" value="" style="endArrow=classic;html=1;rounded=0;entryX=0;entryY=0.25;entryDx=0;entryDy=0;" edge="1" parent="1" target="JXqbrIZ9gM3I_YPn6SAN-1">
          <mxGeometry width="50" height="50" relative="1" as="geometry">
            <mxPoint x="280" y="280" as="sourcePoint" />
            <mxPoint x="550" y="380" as="targetPoint" />
          </mxGeometry>
        </mxCell>
        <mxCell id="JXqbrIZ9gM3I_YPn6SAN-6" value="Предоставить &lt;br&gt;персональную информацию" style="edgeLabel;html=1;align=center;verticalAlign=middle;resizable=0;points=[];" vertex="1" connectable="0" parent="JXqbrIZ9gM3I_YPn6SAN-2">
          <mxGeometry x="-0.0933" y="2" relative="1" as="geometry">
            <mxPoint x="-14" y="-18" as="offset" />
          </mxGeometry>
        </mxCell>
        <mxCell id="JXqbrIZ9gM3I_YPn6SAN-3" value="" style="endArrow=classic;html=1;rounded=0;entryX=0;entryY=0.25;entryDx=0;entryDy=0;" edge="1" parent="1">
          <mxGeometry width="50" height="50" relative="1" as="geometry">
            <mxPoint x="280" y="320" as="sourcePoint" />
            <mxPoint x="400" y="319.5" as="targetPoint" />
          </mxGeometry>
        </mxCell>
        <mxCell id="JXqbrIZ9gM3I_YPn6SAN-7" value="Оплатить тренировку" style="edgeLabel;html=1;align=center;verticalAlign=middle;resizable=0;points=[];" vertex="1" connectable="0" parent="JXqbrIZ9gM3I_YPn6SAN-3">
          <mxGeometry x="-0.0932" y="3" relative="1" as="geometry">
            <mxPoint y="-7" as="offset" />
          </mxGeometry>
        </mxCell>
        <mxCell id="JXqbrIZ9gM3I_YPn6SAN-4" value="" style="endArrow=classic;html=1;rounded=0;entryX=0;entryY=0.25;entryDx=0;entryDy=0;" edge="1" parent="1">
          <mxGeometry width="50" height="50" relative="1" as="geometry">
            <mxPoint x="280" y="360" as="sourcePoint" />
            <mxPoint x="400" y="360" as="targetPoint" />
          </mxGeometry>
        </mxCell>
        <mxCell id="JXqbrIZ9gM3I_YPn6SAN-8" value="Выбрать тренировку" style="edgeLabel;html=1;align=center;verticalAlign=middle;resizable=0;points=[];" vertex="1" connectable="0" parent="JXqbrIZ9gM3I_YPn6SAN-4">
          <mxGeometry x="-0.11" y="2" relative="1" as="geometry">
            <mxPoint y="-8" as="offset" />
          </mxGeometry>
        </mxCell>
        <mxCell id="JXqbrIZ9gM3I_YPn6SAN-9" value="" style="endArrow=classic;html=1;rounded=0;entryX=0.25;entryY=0;entryDx=0;entryDy=0;" edge="1" parent="1" target="JXqbrIZ9gM3I_YPn6SAN-1">
          <mxGeometry width="50" height="50" relative="1" as="geometry">
            <mxPoint x="470" y="160" as="sourcePoint" />
            <mxPoint x="441.72" y="240.00000000000003" as="targetPoint" />
          </mxGeometry>
        </mxCell>
        <mxCell id="JXqbrIZ9gM3I_YPn6SAN-11" value="База данных" style="edgeLabel;html=1;align=center;verticalAlign=middle;resizable=0;points=[];rotation=0;" vertex="1" connectable="0" parent="JXqbrIZ9gM3I_YPn6SAN-9">
          <mxGeometry x="-0.035" y="1" relative="1" as="geometry">
            <mxPoint x="-61" y="2" as="offset" />
          </mxGeometry>
        </mxCell>
        <mxCell id="JXqbrIZ9gM3I_YPn6SAN-10" value="" style="endArrow=classic;html=1;rounded=0;entryX=0.25;entryY=0;entryDx=0;entryDy=0;" edge="1" parent="1">
          <mxGeometry width="50" height="50" relative="1" as="geometry">
            <mxPoint x="600" y="160" as="sourcePoint" />
            <mxPoint x="600" y="240" as="targetPoint" />
          </mxGeometry>
        </mxCell>
        <mxCell id="JXqbrIZ9gM3I_YPn6SAN-13" value="Список &lt;br&gt;клиентов" style="edgeLabel;html=1;align=center;verticalAlign=middle;resizable=0;points=[];rotation=0;" vertex="1" connectable="0" parent="1">
          <mxGeometry x="570" y="130" as="geometry">
            <mxPoint x="-1.0000000000000129" y="70" as="offset" />
          </mxGeometry>
        </mxCell>
        <mxCell id="JXqbrIZ9gM3I_YPn6SAN-14" value="" style="endArrow=classic;html=1;rounded=0;entryX=0.75;entryY=1;entryDx=0;entryDy=0;" edge="1" parent="1" target="JXqbrIZ9gM3I_YPn6SAN-1">
          <mxGeometry width="50" height="50" relative="1" as="geometry">
            <mxPoint x="610" y="480" as="sourcePoint" />
            <mxPoint x="480" y="590" as="targetPoint" />
          </mxGeometry>
        </mxCell>
        <mxCell id="JXqbrIZ9gM3I_YPn6SAN-15" value="Тренер" style="edgeLabel;html=1;align=center;verticalAlign=middle;resizable=0;points=[];rotation=0;" vertex="1" connectable="0" parent="JXqbrIZ9gM3I_YPn6SAN-14">
          <mxGeometry x="-0.035" y="1" relative="1" as="geometry">
            <mxPoint x="-29" y="-1" as="offset" />
          </mxGeometry>
        </mxCell>
        <mxCell id="JXqbrIZ9gM3I_YPn6SAN-16" value="" style="endArrow=classic;html=1;rounded=0;entryX=0.25;entryY=1;entryDx=0;entryDy=0;" edge="1" parent="1">
          <mxGeometry width="50" height="50" relative="1" as="geometry">
            <mxPoint x="539.5" y="480" as="sourcePoint" />
            <mxPoint x="539.5" y="400" as="targetPoint" />
          </mxGeometry>
        </mxCell>
        <mxCell id="JXqbrIZ9gM3I_YPn6SAN-17" value="Клиенты&amp;nbsp;" style="edgeLabel;html=1;align=center;verticalAlign=middle;resizable=0;points=[];rotation=0;" vertex="1" connectable="0" parent="JXqbrIZ9gM3I_YPn6SAN-16">
          <mxGeometry x="-0.035" y="1" relative="1" as="geometry">
            <mxPoint x="-29" y="-1" as="offset" />
          </mxGeometry>
        </mxCell>
        <mxCell id="JXqbrIZ9gM3I_YPn6SAN-35" value="" style="endArrow=classic;html=1;rounded=0;entryX=0.25;entryY=1;entryDx=0;entryDy=0;" edge="1" parent="1">
          <mxGeometry width="50" height="50" relative="1" as="geometry">
            <mxPoint x="470" y="480" as="sourcePoint" />
            <mxPoint x="470" y="400" as="targetPoint" />
          </mxGeometry>
        </mxCell>
        <mxCell id="JXqbrIZ9gM3I_YPn6SAN-36" value="Администратор" style="edgeLabel;html=1;align=center;verticalAlign=middle;resizable=0;points=[];rotation=0;" vertex="1" connectable="0" parent="JXqbrIZ9gM3I_YPn6SAN-35">
          <mxGeometry x="-0.035" y="1" relative="1" as="geometry">
            <mxPoint x="-49" y="-1" as="offset" />
          </mxGeometry>
        </mxCell>
        <mxCell id="JXqbrIZ9gM3I_YPn6SAN-37" value="&lt;span style=&quot;font-weight: normal;&quot;&gt;Администратор (РК)&lt;/span&gt;" style="swimlane;fontStyle=1;align=center;verticalAlign=top;childLayout=stackLayout;horizontal=1;startSize=26;horizontalStack=0;resizeParent=1;resizeParentMax=0;resizeLast=0;collapsible=1;marginBottom=0;whiteSpace=wrap;html=1;" vertex="1" parent="1">
          <mxGeometry x="1180" y="277" width="160" height="86" as="geometry" />
        </mxCell>
        <mxCell id="JXqbrIZ9gM3I_YPn6SAN-38" value="Клиент" style="text;strokeColor=none;fillColor=none;align=center;verticalAlign=top;spacingLeft=4;spacingRight=4;overflow=hidden;rotatable=0;points=[[0,0.5],[1,0.5]];portConstraint=eastwest;whiteSpace=wrap;html=1;" vertex="1" parent="JXqbrIZ9gM3I_YPn6SAN-37">
          <mxGeometry y="26" width="160" height="26" as="geometry" />
        </mxCell>
        <mxCell id="JXqbrIZ9gM3I_YPn6SAN-39" value="" style="line;strokeWidth=1;fillColor=none;align=left;verticalAlign=middle;spacingTop=-1;spacingLeft=3;spacingRight=3;rotatable=0;labelPosition=right;points=[];portConstraint=eastwest;strokeColor=inherit;" vertex="1" parent="JXqbrIZ9gM3I_YPn6SAN-37">
          <mxGeometry y="52" width="160" height="8" as="geometry" />
        </mxCell>
        <mxCell id="JXqbrIZ9gM3I_YPn6SAN-40" value="Запись на тренировку" style="text;strokeColor=none;fillColor=none;align=center;verticalAlign=top;spacingLeft=4;spacingRight=4;overflow=hidden;rotatable=0;points=[[0,0.5],[1,0.5]];portConstraint=eastwest;whiteSpace=wrap;html=1;" vertex="1" parent="JXqbrIZ9gM3I_YPn6SAN-37">
          <mxGeometry y="60" width="160" height="26" as="geometry" />
        </mxCell>
        <mxCell id="JXqbrIZ9gM3I_YPn6SAN-45" value="" style="html=1;verticalAlign=bottom;startArrow=oval;startFill=0;endArrow=none;startSize=8;curved=0;rounded=0;endFill=0;dashed=1;" edge="1" parent="1">
          <mxGeometry width="60" relative="1" as="geometry">
            <mxPoint x="1350" y="320" as="sourcePoint" />
            <mxPoint x="1440" y="320" as="targetPoint" />
          </mxGeometry>
        </mxCell>
        <mxCell id="JXqbrIZ9gM3I_YPn6SAN-46" value="&lt;span style=&quot;font-weight: normal;&quot;&gt;Запись на тренировку (РК)&lt;/span&gt;" style="swimlane;fontStyle=1;align=center;verticalAlign=top;childLayout=stackLayout;horizontal=1;startSize=26;horizontalStack=0;resizeParent=1;resizeParentMax=0;resizeLast=0;collapsible=1;marginBottom=0;whiteSpace=wrap;html=1;" vertex="1" parent="1">
          <mxGeometry x="1440" y="265" width="160" height="110" as="geometry" />
        </mxCell>
        <mxCell id="JXqbrIZ9gM3I_YPn6SAN-47" value="Клиент" style="text;strokeColor=none;fillColor=none;align=center;verticalAlign=top;spacingLeft=4;spacingRight=4;overflow=hidden;rotatable=0;points=[[0,0.5],[1,0.5]];portConstraint=eastwest;whiteSpace=wrap;html=1;" vertex="1" parent="JXqbrIZ9gM3I_YPn6SAN-46">
          <mxGeometry y="26" width="160" height="26" as="geometry" />
        </mxCell>
        <mxCell id="JXqbrIZ9gM3I_YPn6SAN-48" value="" style="line;strokeWidth=1;fillColor=none;align=left;verticalAlign=middle;spacingTop=-1;spacingLeft=3;spacingRight=3;rotatable=0;labelPosition=right;points=[];portConstraint=eastwest;strokeColor=inherit;" vertex="1" parent="JXqbrIZ9gM3I_YPn6SAN-46">
          <mxGeometry y="52" width="160" height="8" as="geometry" />
        </mxCell>
        <mxCell id="JXqbrIZ9gM3I_YPn6SAN-49" value="Желание изменить свою жизнь" style="text;strokeColor=none;fillColor=none;align=center;verticalAlign=top;spacingLeft=4;spacingRight=4;overflow=hidden;rotatable=0;points=[[0,0.5],[1,0.5]];portConstraint=eastwest;whiteSpace=wrap;html=1;" vertex="1" parent="JXqbrIZ9gM3I_YPn6SAN-46">
          <mxGeometry y="60" width="160" height="50" as="geometry" />
        </mxCell>
        <mxCell id="JXqbrIZ9gM3I_YPn6SAN-50" value="" style="html=1;verticalAlign=bottom;startArrow=oval;startFill=1;endArrow=none;startSize=8;curved=0;rounded=0;endFill=0;" edge="1" parent="1">
          <mxGeometry width="60" relative="1" as="geometry">
            <mxPoint x="1610" y="319.67" as="sourcePoint" />
            <mxPoint x="1700" y="319.67" as="targetPoint" />
          </mxGeometry>
        </mxCell>
        <mxCell id="JXqbrIZ9gM3I_YPn6SAN-51" value="&lt;span style=&quot;font-weight: 400;&quot;&gt;Желание изменить свою&lt;br&gt;жизнь (РК)&lt;br&gt;&lt;/span&gt;" style="swimlane;fontStyle=1;align=center;verticalAlign=top;childLayout=stackLayout;horizontal=1;startSize=35;horizontalStack=0;resizeParent=1;resizeParentMax=0;resizeLast=0;collapsible=1;marginBottom=0;whiteSpace=wrap;html=1;" vertex="1" parent="1">
          <mxGeometry x="1700" y="260" width="160" height="119" as="geometry" />
        </mxCell>
        <mxCell id="JXqbrIZ9gM3I_YPn6SAN-52" value="Клиент" style="text;strokeColor=none;fillColor=none;align=center;verticalAlign=top;spacingLeft=4;spacingRight=4;overflow=hidden;rotatable=0;points=[[0,0.5],[1,0.5]];portConstraint=eastwest;whiteSpace=wrap;html=1;" vertex="1" parent="JXqbrIZ9gM3I_YPn6SAN-51">
          <mxGeometry y="35" width="160" height="26" as="geometry" />
        </mxCell>
        <mxCell id="JXqbrIZ9gM3I_YPn6SAN-53" value="" style="line;strokeWidth=1;fillColor=none;align=left;verticalAlign=middle;spacingTop=-1;spacingLeft=3;spacingRight=3;rotatable=0;labelPosition=right;points=[];portConstraint=eastwest;strokeColor=inherit;" vertex="1" parent="JXqbrIZ9gM3I_YPn6SAN-51">
          <mxGeometry y="61" width="160" height="8" as="geometry" />
        </mxCell>
        <mxCell id="JXqbrIZ9gM3I_YPn6SAN-54" value="Клиент записан на тренировку" style="text;strokeColor=none;fillColor=none;align=left;verticalAlign=top;spacingLeft=4;spacingRight=4;overflow=hidden;rotatable=0;points=[[0,0.5],[1,0.5]];portConstraint=eastwest;whiteSpace=wrap;html=1;" vertex="1" parent="JXqbrIZ9gM3I_YPn6SAN-51">
          <mxGeometry y="69" width="160" height="50" as="geometry" />
        </mxCell>
        <mxCell id="JXqbrIZ9gM3I_YPn6SAN-55" value="Руководитель" style="text;html=1;align=center;verticalAlign=middle;resizable=0;points=[];autosize=1;strokeColor=none;fillColor=none;" vertex="1" parent="1">
          <mxGeometry x="1205" y="247" width="100" height="30" as="geometry" />
        </mxCell>
        <mxCell id="JXqbrIZ9gM3I_YPn6SAN-56" value="Проект" style="text;html=1;align=center;verticalAlign=middle;resizable=0;points=[];autosize=1;strokeColor=none;fillColor=none;" vertex="1" parent="1">
          <mxGeometry x="1480" y="230" width="60" height="30" as="geometry" />
        </mxCell>
        <mxCell id="JXqbrIZ9gM3I_YPn6SAN-57" value="Заказчик" style="text;html=1;align=center;verticalAlign=middle;resizable=0;points=[];autosize=1;strokeColor=none;fillColor=none;" vertex="1" parent="1">
          <mxGeometry x="1745" y="230" width="70" height="30" as="geometry" />
        </mxCell>
      </root>
    </mxGraphModel>
  </diagram>
</mxfile>
